<?xml version="1.0" encoding="UTF-8" standalone="no"?>
<svg width="14px" height="14px" viewBox="0 0 14 14" version="1.1" xmlns="http://www.w3.org/2000/svg" xmlns:xlink="http://www.w3.org/1999/xlink">
    <!-- Generator: Sketch 3.8.3 (29802) - http://www.bohemiancoding.com/sketch -->
    <title>clock icon</title>
    <desc>Created with Sketch.</desc>
    <defs></defs>
    <g id="Page-1" stroke="none" stroke-width="1" fill="none" fill-rule="evenodd">
        <g id="-SVG-Icons" transform="translate(-271.000000, -270.000000)" fill="#000000">
            <path d="M277.84019,270 C281.619149,270 284.682246,273.077608 284.682246,276.873698 C284.682246,280.669789 281.619149,283.746772 277.84019,283.746772 C274.063097,283.746772 271,280.669789 271,276.873698 C271.000622,273.077608 274.063097,270 277.84019,270 Z M281.938831,276.870575 C281.938831,277.167964 281.714308,277.4085 281.425723,277.440363 L277.554716,277.440363 C277.396741,277.427868 277.271729,277.297916 277.261778,277.137351 L277.261778,277.129229 L277.261778,277.104238 L277.261778,274.143462 L277.261778,274.104726 C277.272973,273.792342 277.526106,273.543685 277.84019,273.543685 C278.15925,273.543685 278.41798,273.803588 278.41798,274.124719 L278.41798,274.450848 L278.41798,275.956539 L278.41798,275.959038 C278.41798,275.964661 278.416736,275.970284 278.416736,275.975282 C278.416736,275.980905 278.41798,275.986528 278.41798,275.990901 L278.41798,275.995275 C278.426066,276.152716 278.548589,276.275795 278.702833,276.291415 L281.402711,276.293914 C281.701869,276.313906 281.938831,276.563813 281.938831,276.870575 Z M282.908449,276.873698 C282.908449,274.062242 280.63958,271.783713 277.840812,271.783713 C275.043287,271.783713 272.774419,274.061617 272.774419,276.873698 C272.774419,279.68578 275.043287,281.964934 277.840812,281.964934 C280.63958,281.964934 282.908449,279.68578 282.908449,276.873698 L282.908449,276.873698 Z" id="clock-icon"></path>
        </g>
    </g>
</svg>