<?xml version="1.0" encoding="UTF-8" standalone="no"?>
<svg width="26px" height="25px" viewBox="0 0 26 25" version="1.1" xmlns="http://www.w3.org/2000/svg" xmlns:xlink="http://www.w3.org/1999/xlink">
    <!-- Generator: Sketch 3.8.3 (29802) - http://www.bohemiancoding.com/sketch -->
    <title>close icon</title>
    <desc>Created with Sketch.</desc>
    <defs></defs>
    <g id="Page-1" stroke="none" stroke-width="1" fill="none" fill-rule="evenodd">
        <g id="-SVG-Icons" transform="translate(-266.000000, -520.000000)" fill="#000000">
            <path d="M272.327408,521.667712 C274.272282,520.555904 276.395383,520 278.696,520 C280.997328,520 283.119718,520.555904 285.065302,521.667712 C287.010886,522.77952 288.551732,524.28741 289.688549,526.191382 C290.823946,528.096048 291.392,530.173045 291.392,532.424456 C291.392,534.675868 290.823946,536.753559 289.688549,538.657531 C288.551732,540.561502 287.010886,542.069392 285.065302,543.1812 C283.119718,544.293008 280.997328,544.848913 278.696,544.848913 C276.395383,544.848913 274.272282,544.293008 272.327408,543.1812 C270.381114,542.069392 268.840268,540.561502 267.704161,538.657531 C266.568054,536.753559 266,534.675868 266,532.424456 C266,530.173045 266.568054,528.096048 267.704161,526.191382 C268.840268,524.28741 270.381114,522.77952 272.327408,521.667712 C272.327408,521.667712 270.381114,522.77952 272.327408,521.667712 L272.327408,521.667712 L272.327408,521.667712 Z M284.927549,526.326883 C283.201376,524.638325 281.12443,523.794045 278.696,523.794045 C276.26757,523.794045 274.191334,524.638325 272.465161,526.326883 C270.739698,528.015442 269.876966,530.047966 269.876966,532.424456 C269.876966,534.800946 270.739698,536.833471 272.465161,538.522029 C274.191334,540.210588 276.26757,541.054867 278.696,541.054867 C281.12443,541.054867 283.201376,540.210588 284.927549,538.522029 C286.652302,536.833471 287.515034,534.800946 287.515034,532.424456 C287.515034,530.047966 286.652302,528.015442 284.927549,526.326883 C284.927549,526.326883 286.652302,528.015442 284.927549,526.326883 L284.927549,526.326883 L284.927549,526.326883 Z M283.894401,529.610192 L281.017919,532.424456 L283.894401,535.238721 L281.571772,537.510979 L278.696,534.696714 L275.820938,537.510979 L273.498309,535.238721 L276.374791,532.424456 L273.498309,529.610192 L275.820938,527.337934 L278.696,530.152198 L281.571772,527.337934 L283.894401,529.610192 L283.894401,529.610192 Z" id="close-icon"></path>
        </g>
    </g>
</svg>