<?xml version="1.0" encoding="UTF-8" standalone="no"?>
<svg width="23px" height="19px" viewBox="0 0 23 19" version="1.1" xmlns="http://www.w3.org/2000/svg" xmlns:xlink="http://www.w3.org/1999/xlink">
    <!-- Generator: Sketch 3.8.3 (29802) - http://www.bohemiancoding.com/sketch -->
    <title>email icon</title>
    <desc>Created with Sketch.</desc>
    <defs></defs>
    <g id="Page-1" stroke="none" stroke-width="1" fill="none" fill-rule="evenodd">
        <g id="-SVG-Icons" transform="translate(-380.000000, -354.000000)" fill="#000000">
            <path d="M391.5,365.457 L380,354 L403,354 L391.5,365.457 L391.5,365.457 L391.5,365.457 L391.5,365.457 Z M380,357.8 L380,369.2 L385.75,363.5 L380,357.8 L380,357.8 L380,357.8 L380,357.8 Z M391.5,369.2 L387.666667,365.4 L380,373 L403,373 L395.333333,365.4 L391.5,369.2 L391.5,369.2 L391.5,369.2 L391.5,369.2 Z M397.25,363.5 L403,369.2 L403,357.8 L397.25,363.5 L397.25,363.5 Z" id="email-icon"></path>
        </g>
    </g>
</svg>