<svg xmlns="http://www.w3.org/2000/svg" viewBox="0 0 15 12.34"><defs><style>.cls-1{fill:#4b4b4b;}</style></defs><title>FS-school-icon</title><g id="Layer_2" data-name="Layer 2"><g id="School_Districts" data-name="School Districts"><path class="cls-1" d="M14.69,7.25H12.86V3.63h.6V3.5L7.61,0H7.36L1.46,3.5v.13H2V7.25H0V7.6H.31V12.1h0v.24H14.69V7.6H15V7.25ZM7.5,1a.94.94,0,1,1-.94.94A.94.94,0,0,1,7.5,1Zm.83,3.61V6.24H6.67V4.58ZM5,6.24H3.3V4.58H5Zm3.66,5.63H6.38V8.2H8.62ZM11.7,6.24H10V4.58H11.7Z"/></g></g></svg>