<?xml version="1.0" encoding="UTF-8" standalone="no"?>
<svg width="22px" height="22px" viewBox="0 0 22 22" version="1.1" xmlns="http://www.w3.org/2000/svg" xmlns:xlink="http://www.w3.org/1999/xlink">
    <!-- Generator: Sketch 3.8.3 (29802) - http://www.bohemiancoding.com/sketch -->
    <title>help icon</title>
    <desc>Created with Sketch.</desc>
    <defs></defs>
    <g id="Page-1" stroke="none" stroke-width="1" fill="none" fill-rule="evenodd">
        <g id="-SVG-Icons" transform="translate(-513.000000, -423.000000)" fill="#000000">
            <path d="M518.465401,424.469688 C520.149418,423.489896 521.983466,423 523.967544,423 C525.952235,423 527.785671,423.489896 529.4703,424.469688 C531.153705,425.449479 532.486222,426.781384 533.465401,428.465401 C534.445193,430.149418 534.935089,431.983466 534.935089,433.967544 C534.935089,435.951623 534.445193,437.785671 533.465401,439.469688 C532.486222,441.153705 531.153705,442.485609 529.4703,443.465401 C527.785671,444.445193 525.952235,444.935089 523.967544,444.935089 C521.983466,444.935089 520.149418,444.445193 518.465401,443.465401 C516.781384,442.485609 515.449479,441.153705 514.4703,439.469688 C513.489896,437.785671 513,435.951623 513,433.967544 C513,431.983466 513.489896,430.149418 514.4703,428.465401 C515.449479,426.781384 516.781384,425.449479 518.465401,424.469688 C518.465401,424.469688 516.781384,425.449479 518.465401,424.469688 L518.465401,424.469688 L518.465401,424.469688 Z M522.130435,435.804654 L525.804654,435.804654 C525.865891,435.767912 525.952235,435.718922 526.061849,435.657685 C526.172076,435.596448 526.364972,435.440294 526.641151,435.189222 C526.916718,434.938151 527.157991,434.659522 527.366197,434.353337 C527.574403,434.047152 527.764238,433.624617 527.936314,433.085732 C528.107165,432.546846 528.193509,431.971219 528.193509,431.358849 C528.193509,430.734231 528.085732,430.189222 527.871402,429.723821 C527.657073,429.25842 527.399878,428.903858 527.100429,428.658298 C526.799755,428.41335 526.441519,428.217391 526.02572,428.070423 C525.608696,427.923454 525.250459,427.831598 524.95101,427.794856 C524.650337,427.758114 524.334966,427.739743 524.004287,427.739743 C522.71831,427.739743 521.665034,428.08267 520.84507,428.768524 C520.023882,429.454378 519.613595,430.575015 519.613595,432.130435 L522.259032,432.130435 C522.308022,432.130435 522.379057,432.136558 522.4703,432.148806 C522.562156,432.161053 522.629516,432.167177 522.672382,432.167177 C522.715248,432.167177 522.755052,432.148806 522.791794,432.112064 C522.828536,432.075321 522.846908,432.020208 522.846908,431.946724 C522.846908,431.873239 522.853031,431.805879 522.865891,431.744642 C522.877526,431.683405 522.898959,431.631966 522.929577,431.588487 C522.960196,431.545622 522.981629,431.508879 522.993876,431.478261 C523.006124,431.447642 523.040416,431.423148 523.09553,431.404776 C523.150031,431.386405 523.189835,431.371096 523.214329,431.358849 C523.238824,431.346601 523.293938,431.337416 523.379669,431.331292 C523.465401,431.325168 523.520514,431.322107 523.545009,431.322107 L523.756889,431.322107 L523.986528,431.322107 C524.219228,431.322107 524.402327,431.383344 524.537048,431.505818 C524.67177,431.628291 524.73913,431.787508 524.73913,431.983466 C524.73913,432.252909 524.714636,432.424372 524.665646,432.497857 C524.616656,432.571341 524.451317,432.706062 524.169626,432.902021 C524.108389,432.914268 524.032456,432.932639 523.939988,432.957134 C523.848132,432.981629 523.682792,433.064299 523.443968,433.205144 C523.205144,433.345989 522.996938,433.511329 522.819351,433.701164 C522.641764,433.891611 522.480098,434.172688 522.332517,434.546234 C522.185548,434.91978 522.118187,435.339253 522.130435,435.804654 C522.130435,435.804654 522.118187,435.339253 522.130435,435.804654 L522.130435,435.804654 L522.130435,435.804654 Z M522.130435,439.478873 L525.804654,439.478873 L525.804654,437.641764 L522.130435,437.641764 L522.130435,437.641764 L522.130435,439.478873 L522.130435,439.478873 Z" id="help-icon"></path>
        </g>
    </g>
</svg>