<?xml version="1.0" encoding="UTF-8" standalone="no"?>
<svg width="22px" height="22px" viewBox="0 0 22 22" version="1.1" xmlns="http://www.w3.org/2000/svg" xmlns:xlink="http://www.w3.org/1999/xlink">
    <!-- Generator: Sketch 3.8.3 (29802) - http://www.bohemiancoding.com/sketch -->
    <title>logout icon</title>
    <desc>Created with Sketch.</desc>
    <defs></defs>
    <g id="Page-1" stroke="none" stroke-width="1" fill="none" fill-rule="evenodd">
        <g id="-SVG-Icons" transform="translate(-584.000000, -423.000000)" fill="#000000">
            <path d="M598.274342,427.133497 L598.274342,424.083895 C600.319657,424.843233 601.985915,426.12921 603.27128,427.941825 C604.557257,429.75444 605.200857,431.781384 605.200857,434.022658 C605.200857,435.467851 604.922229,436.842621 604.364972,438.146969 C603.807103,439.451317 603.053889,440.578077 602.104715,441.52725 C601.155542,442.476424 600.029394,443.229639 598.724434,443.786895 C597.420698,444.344764 596.045315,444.62278 594.600122,444.62278 C593.15493,444.62278 591.780159,444.344764 590.476424,443.786895 C589.171464,443.229639 588.044703,442.476424 587.09553,441.52725 C586.146969,440.578077 585.393141,439.451317 584.835885,438.146969 C584.278628,436.842621 584,435.467851 584,434.022658 C584,431.781384 584.643601,429.75444 585.928965,427.941825 C587.214942,426.12921 588.880588,424.843233 590.925903,424.083895 L590.925903,427.133497 C589.664421,427.807103 588.654011,428.756277 587.894672,429.981017 C587.135334,431.205756 586.755664,432.55297 586.755664,434.022658 C586.755664,436.190447 587.521127,438.039804 589.052051,439.570729 C590.582976,441.102266 592.432333,441.867116 594.600122,441.867116 C596.767912,441.867116 598.617269,441.102266 600.148806,439.570729 C601.679731,438.039804 602.445193,436.190447 602.445193,434.022658 C602.445193,432.55297 602.064911,431.205756 601.306185,429.981017 C600.545622,428.756277 599.535824,427.807103 598.274342,427.133497 C598.274342,427.133497 599.535824,427.807103 598.274342,427.133497 L598.274342,427.133497 L598.274342,427.133497 Z M596.437232,431.266993 L596.437232,423.918555 C596.437232,423.661359 596.348438,423.443968 596.170851,423.266381 C595.993876,423.089406 595.775873,423 595.518677,423 L593.681568,423 C593.424372,423 593.206981,423.089406 593.030006,423.266381 C592.851806,423.443968 592.763013,423.661359 592.763013,423.918555 L592.763013,431.266993 C592.763013,431.524189 592.851806,431.74158 593.030006,431.919167 C593.206981,432.096754 593.424372,432.185548 593.681568,432.185548 L595.518677,432.185548 C595.775873,432.185548 595.993876,432.096754 596.170851,431.919167 C596.348438,431.74158 596.437232,431.524189 596.437232,431.266993 L596.437232,431.266993 Z" id="logout-icon"></path>
        </g>
    </g>
</svg>