<?xml version="1.0" encoding="UTF-8" standalone="no"?>
<svg width="21px" height="22px" viewBox="0 0 21 22" version="1.1" xmlns="http://www.w3.org/2000/svg" xmlns:xlink="http://www.w3.org/1999/xlink">
    <!-- Generator: Sketch 3.8.3 (29802) - http://www.bohemiancoding.com/sketch -->
    <title>mobile icon</title>
    <desc>Created with Sketch.</desc>
    <defs></defs>
    <g id="Page-1" stroke="none" stroke-width="1" fill="none" fill-rule="evenodd">
        <g id="-SVG-Icons" transform="translate(-323.000000, -352.000000)" fill="#000000">
            <path d="M326.658543,352.008299 C326.928666,352.044316 327.147766,352.175776 327.315843,352.40448 L329.818988,355.898078 C329.987065,356.138788 330.053695,356.404709 330.017078,356.698844 C329.981062,356.993579 329.861007,357.243293 329.656914,357.446786 L327.531942,359.571157 C328.744496,361.275937 330.107119,362.884672 331.619811,364.397964 C333.108492,365.886044 334.711224,367.249268 336.42861,368.485233 L338.570989,366.360861 C338.763077,366.156768 339.015192,366.043316 339.327935,366.018705 C339.639478,365.995294 339.910201,366.066727 340.137705,366.234204 L343.595286,368.683323 C343.823391,368.852 343.956051,369.077103 343.991467,369.358632 C344.027484,369.641361 343.949448,369.883872 343.757961,370.087965 L340.822018,373.0059 L340.263763,373.023908 C339.891593,373.023908 339.336339,372.925463 338.598001,372.726772 C337.859664,372.528681 337.037288,372.246552 336.131474,371.880385 C335.224459,371.513617 334.143965,370.892333 332.889391,370.016533 C331.634818,369.140732 330.389248,368.083049 329.153283,366.847684 C327.928723,365.621924 326.877643,364.373353 326.001842,363.101371 C325.125442,361.828189 324.500556,360.762702 324.128386,359.904309 C323.756216,359.045917 323.477688,358.205533 323.291003,357.383757 C323.104918,356.561981 323.008874,356.021134 323.002871,355.762416 C322.996869,355.504298 323.00047,355.309809 323.011875,355.177148 L325.929209,352.260415 C326.145908,352.056321 326.388419,351.971683 326.658543,352.008299" id="mobile-icon"></path>
        </g>
    </g>
</svg>