<?xml version="1.0" encoding="UTF-8" standalone="no"?>
<svg width="20px" height="23px" viewBox="0 0 20 23" version="1.1" xmlns="http://www.w3.org/2000/svg" xmlns:xlink="http://www.w3.org/1999/xlink">
    <!-- Generator: Sketch 3.8.3 (29802) - http://www.bohemiancoding.com/sketch -->
    <title>notification icon</title>
    <desc>Created with Sketch.</desc>
    <defs></defs>
    <g id="Page-1" stroke="none" stroke-width="1" fill="none" fill-rule="evenodd">
        <g id="-SVG-Icons" transform="translate(-379.000000, -426.000000)" fill="#000000">
            <path d="M397.150031,440.696877 L397.462339,440.696877 C397.707287,440.696877 397.913043,440.785671 398.077771,440.962645 C398.243111,441.140845 398.325781,441.358236 398.325781,441.615432 C398.325781,441.86038 398.246785,442.104715 398.087569,442.349663 C397.92774,442.595224 397.738518,442.759951 397.517453,442.846295 C397.24801,442.956522 396.862217,443.097367 396.360686,443.268218 C395.85793,443.440906 394.832211,443.666871 393.282915,443.947949 C391.733619,444.230251 390.193509,444.371096 388.662584,444.371096 C387.13166,444.371096 385.628291,444.24556 384.15248,443.994489 C382.676669,443.743417 381.583588,443.488671 380.873239,443.231476 L379.807716,442.864054 C379.587263,442.778934 379.396816,442.610533 379.238212,442.359461 C379.078996,442.108389 379,441.86038 379,441.615432 C379,441.358236 379.08267,441.140845 379.247397,440.962645 C379.412737,440.785671 379.617881,440.696877 379.862829,440.696877 L380.17575,440.696877 L382.342927,437.518065 L383.500919,431.511329 C383.684017,430.567667 384.149418,429.710349 384.896509,428.938763 C385.644213,428.167177 386.525413,427.65891 387.541947,427.413962 L387.211268,426.826699 C387.137783,426.594611 387.156154,426.39804 387.266993,426.238212 C387.37722,426.078996 387.554195,426 387.799143,426 L389.526638,426 C389.771586,426 389.948561,426.064911 390.058788,426.192897 C390.169014,426.321494 390.187998,426.502143 390.113901,426.734231 L389.783221,427.413962 C390.800367,427.646663 391.681568,428.153092 392.429271,428.93019 C393.175138,429.7079 393.641151,430.567667 393.824862,431.511329 L394.982854,437.518065 L397.150031,440.696877 L397.150031,440.696877 L397.150031,440.696877 L397.150031,440.696877 Z M388.662584,446.134109 C388.001225,446.134109 387.370484,446.097979 386.770974,446.023882 C386.917942,446.624617 387.162278,447.111451 387.505205,447.484385 C387.848132,447.858543 388.233925,448.045315 388.662584,448.045315 C389.091243,448.045315 389.477036,447.858543 389.820576,447.484385 C390.16289,447.111451 390.401715,446.624617 390.537048,446.023882 C389.948561,446.097979 389.323944,446.134109 388.662584,446.134109 L388.662584,446.134109 Z" id="notification-icon"></path>
        </g>
    </g>
</svg>