<?xml version="1.0" encoding="UTF-8" standalone="no"?>
<svg width="22px" height="22px" viewBox="0 0 22 22" version="1.1" xmlns="http://www.w3.org/2000/svg" xmlns:xlink="http://www.w3.org/1999/xlink">
    <!-- Generator: Sketch 3.8.3 (29802) - http://www.bohemiancoding.com/sketch -->
    <title>settings icon</title>
    <desc>Created with Sketch.</desc>
    <defs></defs>
    <g id="Page-1" stroke="none" stroke-width="1" fill="none" fill-rule="evenodd">
        <g id="-SVG-Icons" transform="translate(-446.000000, -423.000000)" fill="#000000">
            <path d="M454.396203,441.169014 C453.795468,441.009798 453.220453,440.770974 452.668708,440.452541 L452.576852,440.397428 L450.133497,441.885487 C449.398653,441.322107 448.755664,440.679118 448.204532,439.956522 L449.674219,437.494795 L449.619106,437.402939 C449.325168,436.864054 449.092468,436.29455 448.921004,435.694427 L448.884874,435.584201 L446.110227,434.886099 C446.036742,434.383956 446,433.930802 446,433.526638 C446,433.220453 446.036742,432.773423 446.110227,432.185548 L448.884874,431.487446 L448.921004,431.37722 C449.08022,430.814452 449.312921,430.244336 449.619106,429.668708 L449.674219,429.576852 L448.204532,427.115126 C448.767912,426.404776 449.4109,425.7624 450.133497,425.18616 L452.576852,426.674219 L452.668708,426.619106 C453.207593,426.312921 453.783833,426.074097 454.396203,425.902633 L454.488059,425.884262 L455.185548,423.091855 C455.761176,423.030618 456.214329,423 456.545009,423 C456.961421,423 457.414574,423.030618 457.905083,423.091855 L458.602572,425.884262 L458.712799,425.902633 C459.300674,426.074097 459.870178,426.312921 460.42131,426.619106 L460.513778,426.674219 L462.974893,425.18616 C463.710349,425.7624 464.347214,426.404776 464.885487,427.115126 L463.416412,429.576852 L463.471525,429.668708 C463.752603,430.183099 463.991427,430.752603 464.187998,431.37722 L464.205756,431.487446 L466.998775,432.185548 C467.0594,432.736681 467.090631,433.183711 467.090631,433.526638 C467.090631,433.94305 467.0594,434.396203 466.998775,434.886099 L464.205756,435.584201 L464.187998,435.694427 C464.003674,436.29455 463.76485,436.864054 463.471525,437.402939 L463.416412,437.494795 L464.885487,439.956522 C464.297612,440.703613 463.660135,441.346601 462.974893,441.885487 L460.513778,440.397428 L460.42131,440.452541 C459.845683,440.770974 459.275566,441.009798 458.712799,441.169014 L458.602572,441.205756 L457.905083,443.979792 C457.328843,444.041029 456.875689,444.071647 456.545009,444.071647 C456.12921,444.071647 455.675444,444.041029 455.185548,443.979792 L454.488059,441.205756 L454.396203,441.169014 L454.396203,441.169014 L454.396203,441.169014 L454.396203,441.169014 Z M452.595224,433.526638 C452.595224,434.617269 452.981017,435.547459 453.752603,436.319045 C454.524801,437.090631 455.454991,437.476424 456.545009,437.476424 C457.635028,437.476424 458.56583,437.090631 459.338028,436.319045 C460.109614,435.547459 460.495407,434.617269 460.495407,433.526638 C460.495407,432.448867 460.109614,431.524189 459.338028,430.752603 C458.56583,429.981017 457.635028,429.595224 456.545009,429.595224 C455.454991,429.595224 454.524801,429.981017 453.752603,430.752603 C452.981017,431.524189 452.595224,432.448867 452.595224,433.526638 L452.595224,433.526638 Z" id="settings-icon"></path>
        </g>
    </g>
</svg>