<?xml version="1.0" encoding="UTF-8" standalone="no"?>
<svg width="34px" height="50px" viewBox="0 0 34 50" version="1.1" xmlns="http://www.w3.org/2000/svg" xmlns:xlink="http://www.w3.org/1999/xlink">
    <!-- Generator: Sketch 3.8.3 (29802) - http://www.bohemiancoding.com/sketch -->
    <title>stop pin</title>
    <desc>Created with Sketch.</desc>
    <defs></defs>
    <g id="Page-1" stroke="none" stroke-width="1" fill="none" fill-rule="evenodd">
        <g id="-SVG-Icons" transform="translate(-262.000000, -163.000000)" fill="#000000">
            <g id="stop-pin" transform="translate(262.000000, 163.000000)">
                <path d="M17,0 C7.52857143,0 0,7.75 0,17.5 C0,30.5 17,50 17,50 C17,50 34,30.5 34,17.5 C34,7.75 26.4714286,0 17,0 L17,0 Z M17,23.75 C13.6,23.75 10.9285714,21 10.9285714,17.5 C10.9285714,14 13.6,11.25 17,11.25 C20.4,11.25 23.0714286,14 23.0714286,17.5 C23.0714286,21 20.4,23.75 17,23.75 L17,23.75 Z" id="Shape-Copy-9"></path>
            </g>
        </g>
    </g>
</svg>