<?xml version="1.0" encoding="UTF-8" standalone="no"?>
<svg width="22px" height="22px" viewBox="0 0 22 22" version="1.1" xmlns="http://www.w3.org/2000/svg" xmlns:xlink="http://www.w3.org/1999/xlink">
    <!-- Generator: Sketch 3.8.3 (29802) - http://www.bohemiancoding.com/sketch -->
    <title>tracker icon</title>
    <desc>Created with Sketch.</desc>
    <defs></defs>
    <g id="Page-1" stroke="none" stroke-width="1" fill="none" fill-rule="evenodd">
        <g id="-SVG-Icons" transform="translate(-322.000000, -430.000000)" fill="#000000">
            <path d="M327.456216,431.469688 C329.134109,430.489896 330.965095,430 332.949173,430 C334.933864,430 336.764238,430.489896 338.442743,431.469688 C340.120024,432.449479 341.448867,433.778322 342.429271,435.456216 C343.408451,437.134721 343.898347,438.965095 343.898347,440.949173 C343.898347,442.933252 343.408451,444.764238 342.429271,446.442131 C341.448867,448.120024 340.120024,449.448867 338.442743,450.428659 C336.764238,451.408451 334.933864,451.898347 332.949173,451.898347 C330.965095,451.898347 329.134109,451.408451 327.456216,450.428659 C325.77771,449.448867 324.448867,448.120024 323.469688,446.442131 C322.489896,444.764238 322,442.933252 322,440.949173 C322,438.965095 322.489896,437.134721 323.469688,435.456216 C324.448867,433.778322 325.77771,432.449479 327.456216,431.469688 C327.456216,431.469688 325.77771,432.449479 327.456216,431.469688 L327.456216,431.469688 L327.456216,431.469688 Z M338.323331,435.575628 C336.835273,434.087569 335.043478,433.343539 332.949173,433.343539 C330.854868,433.343539 329.063686,434.087569 327.575628,435.575628 C326.087569,437.063686 325.343539,438.854868 325.343539,440.949173 C325.343539,443.043478 326.087569,444.83466 327.575628,446.322719 C329.063686,447.810778 330.854868,448.554807 332.949173,448.554807 C335.043478,448.554807 336.835273,447.810778 338.323331,446.322719 C339.810778,444.83466 340.554807,443.043478 340.554807,440.949173 C340.554807,438.854868 339.810778,437.063686 338.323331,435.575628 C338.323331,435.575628 339.810778,437.063686 338.323331,435.575628 L338.323331,435.575628 L338.323331,435.575628 Z M332.949173,440.949173 L336.623393,440.949173 L336.623393,442.786283 L331.112064,442.786283 L331.112064,435.437844 L332.949173,435.437844 L332.949173,440.949173 L332.949173,440.949173 Z" id="tracker-icon"></path>
        </g>
    </g>
</svg>