<?xml version="1.0" encoding="UTF-8" standalone="no"?>
<svg width="23px" height="23px" viewBox="0 0 23 23" version="1.1" xmlns="http://www.w3.org/2000/svg" xmlns:xlink="http://www.w3.org/1999/xlink">
    <!-- Generator: Sketch 3.8.3 (29802) - http://www.bohemiancoding.com/sketch -->
    <title>profile icon</title>
    <desc>Created with Sketch.</desc>
    <defs></defs>
    <g id="Page-1" stroke="none" stroke-width="1" fill="none" fill-rule="evenodd">
        <g id="-SVG-Icons" transform="translate(-268.000000, -430.000000)" fill="#000000">
            <path d="M290.045315,449.418249 L290.045315,452.045315 L268,452.045315 L268,449.418249 L275.348438,444.696877 L275.348438,442.859767 C274.895285,442.859767 274.476424,442.403552 274.090631,441.491121 C273.704225,440.57869 273.511329,439.810165 273.511329,439.185548 L273.511329,435.511329 C273.511329,433.993264 274.050214,432.694427 275.128598,431.616656 C276.206369,430.538885 277.50398,430 279.022658,430 C280.541335,430 281.839559,430.538885 282.91733,431.616656 C283.995101,432.694427 284.533987,433.993264 284.533987,435.511329 L284.533987,439.185548 C284.533987,439.810165 284.341702,440.57869 283.955297,441.491121 C283.569504,442.403552 283.150643,442.859767 282.696877,442.859767 L282.696877,444.696877 L290.045315,449.418249" id="profile-icon"></path>
        </g>
    </g>
</svg>